<?xml version="1.0" encoding="utf-8"?>
<svg width="1600px" height="1200px" viewBox="0 0 1600 1200" version="1.1" xmlns:xlink="http://www.w3.org/1999/xlink" xmlns="http://www.w3.org/2000/svg">
  <desc>Created with Lunacy</desc>
  <g id="Aare" transform="translate(0.5898438 1.179688)">
    <path d="M151.429 75.7367C151.429 33.908 117.537 0 75.7147 0C33.8926 0 0 33.908 0 75.7367C0 117.565 33.8926 151.473 75.7147 151.473C117.537 151.473 151.429 117.565 151.429 75.7367ZM75.7147 41.3109C94.726 41.3109 110.13 56.7241 110.13 75.7367C110.13 94.7494 94.726 110.163 75.7147 110.163C56.7034 110.163 41.2989 94.7494 41.2989 75.7367C41.2989 56.7241 56.7034 41.3109 75.7147 41.3109Z" transform="translate(1433.571 401.3752)" id="Shape" fill="#FD6234" fill-rule="evenodd" stroke="none" />
    <path d="M20.6227 41.2574C9.23896 41.2574 0 32.0212 0 20.6287C0 9.23615 9.23896 0 20.6227 0C32.0064 0 41.2454 9.23615 41.2454 20.6287C41.2454 32.0212 32.0064 41.2574 20.6227 41.2574Z" transform="translate(1487.19 456.1886)" id="Shape" fill="#463C74" stroke="none" />
    <path d="M0 20.6287C0 9.23614 9.23346 0 20.6227 0L144.359 0C155.748 0 164.981 9.23614 164.981 20.6287C164.981 32.0212 155.748 41.2573 144.359 41.2573L20.6227 41.2573C9.23346 41.2573 0 32.0212 0 20.6287Z" transform="translate(243.3476 1158.153)" id="Shape" fill="#FFC735" stroke="none" />
    <path d="M213.101 151.473C254.863 151.473 288.717 117.565 288.717 75.7367C288.717 33.908 254.863 0 213.101 0L75.6165 0C33.8542 0 0 33.908 0 75.7367C0 117.565 33.8542 151.473 75.6165 151.473L213.101 151.473ZM247.472 75.7367C247.472 94.7494 232.083 110.163 213.101 110.163L75.6165 110.163C56.634 110.163 41.2454 94.7494 41.2454 75.7367C41.2454 56.7241 56.634 41.3109 75.6165 41.3109L213.101 41.3109C232.083 41.3109 247.472 56.7241 247.472 75.7367Z" transform="translate(160.8569 588.2122)" id="Shape" fill="#B4D51E" fill-rule="evenodd" stroke="none" />
    <path d="M0 268.173C0 279.565 9.23577 288.802 20.6288 288.802L84.5779 288.802C106.252 288.802 125.797 279.685 139.588 265.077C153.379 279.685 172.924 288.802 194.598 288.802L257.859 288.802C299.634 288.802 333.498 254.938 333.498 213.163C333.498 201.771 324.262 192.534 312.869 192.534C301.477 192.534 292.241 201.771 292.241 213.163C292.241 232.151 276.847 247.544 257.859 247.544L194.598 247.544C175.61 247.544 160.217 232.151 160.217 213.163L160.217 74.2633C160.217 33.2493 126.967 0 85.9531 0L85.9531 41.2574C104.182 41.2574 118.959 56.0344 118.959 74.2633L118.959 213.163C118.959 232.151 103.566 247.544 84.5779 247.544L20.6288 247.544C9.23577 247.544 0 256.78 0 268.173Z" transform="translate(83.07993 822.2004)" id="Shape" fill="#B4D51E" stroke="none" />
    <path d="M75.7147 110.163C94.7218 110.163 110.13 94.7494 110.13 75.7367C110.13 56.7241 94.7218 41.3109 75.7147 41.3109C56.7075 41.3109 41.2989 56.7241 41.2989 75.7367C41.2989 87.1441 32.0535 96.3922 20.6495 96.3922C9.24545 96.3922 0 87.1441 0 75.7367C0 33.908 33.8981 0 75.7147 0C117.531 0 151.429 33.908 151.429 75.7367C151.429 117.565 117.531 151.473 75.7147 151.473C64.3107 151.473 55.0652 142.225 55.0652 130.818C55.0652 119.411 64.3107 110.163 75.7147 110.163Z" transform="translate(275.1654 813.9489)" id="Shape" fill="#E5E0D5" stroke="none" />
    <path d="M71.3571 132.024C96.7418 132.024 117.152 111.614 117.152 86.6405C117.152 61.6674 96.7418 41.2574 71.3571 41.2574C57.3333 41.2574 44.8202 47.4762 36.4004 57.3202C28.9882 65.987 15.9388 67.0171 7.25445 59.621C-1.43131 52.225 -2.46362 39.2041 4.94863 30.5387C20.9143 11.8711 44.7623 0 71.3571 0C119.393 0 158.5 38.698 158.5 86.6405C158.5 134.583 119.393 173.281 71.3571 173.281C59.9396 173.281 50.6833 164.045 50.6833 152.652C50.6833 141.26 59.9396 132.024 71.3571 132.024Z" transform="translate(230.974 511.5914)" id="Shape" fill="#E5E0D5" stroke="none" />
    <path d="M100.05 99.8063C113.49 86.3989 113.49 64.6611 100.05 51.2537C86.6101 37.8463 64.8193 37.8463 51.3792 51.2537C37.9391 64.6611 37.9391 86.3989 51.3792 99.8063C59.4435 107.851 59.4435 120.894 51.3792 128.937C43.3149 136.982 30.2396 136.982 22.1766 128.937C-7.3922 99.4414 -7.3922 51.6186 22.1766 22.1222C51.744 -7.37405 99.684 -7.37407 129.253 22.1222C158.822 51.6186 158.822 99.4414 129.253 128.937C121.188 136.982 108.115 136.982 100.05 128.937C91.9859 120.894 91.9859 107.851 100.05 99.8063Z" transform="translate(530.2974 12.9666)" id="Shape" fill="#463C74" stroke="none" />
    <path d="M6.04038 6.04199C14.0942 -2.014 27.1511 -2.014 35.205 6.04199C43.2588 14.098 43.2588 27.1591 35.205 35.2153C27.1511 43.2714 14.0942 43.2714 6.04038 35.2153C-2.01346 27.1591 -2.01346 14.098 6.04038 6.04199Z" transform="translate(547.3848 107.2692)" id="Shape" fill="#FD6234" stroke="none" />
    <path d="M20.6227 41.2574C9.23346 41.2574 0 32.0212 0 20.6287C0 9.23615 9.23346 0 20.6227 0C32.0119 0 41.2454 9.23615 41.2454 20.6287C41.2454 32.0212 32.0119 41.2574 20.6227 41.2574Z" transform="translate(148.4833 822.2004)" id="Shape" fill="#FD6234" stroke="none" />
    <path d="M151.429 75.7367C151.429 33.908 117.531 0 75.7147 0C33.8986 0 0 33.908 0 75.7367C0 117.565 33.8986 151.473 75.7147 151.473C117.531 151.473 151.429 117.565 151.429 75.7367ZM75.7147 41.3109C94.722 41.3109 110.13 56.7241 110.13 75.7367C110.13 94.7494 94.722 110.163 75.7147 110.163C56.7074 110.163 41.2989 94.7494 41.2989 75.7367C41.2989 56.7241 56.7074 41.3109 75.7147 41.3109Z" transform="translate(0 854.0275)" id="Shape" fill="#FFC735" fill-rule="evenodd" stroke="none" />
    <path d="M83.6691 41.3014C60.1858 41.3014 41.1488 60.4087 41.1488 83.9794L41.1488 163.829C41.1488 175.233 31.9373 184.479 20.5744 184.479C9.21142 184.479 0 175.233 0 163.829L0 83.9794C0 37.5994 37.4599 0 83.6691 0L83.6691 41.3014Z" transform="translate(55.38662 710.8055)" id="Shape" fill="#E5E0D5" stroke="none" />
    <path d="M20.6227 41.2574C9.23305 41.2574 0 32.0212 0 20.6287C0 9.23615 9.23305 0 20.6227 0C32.0123 0 41.2454 9.23615 41.2454 20.6287C41.2454 32.0212 32.0123 41.2574 20.6227 41.2574Z" transform="translate(55.38662 854.0275)" id="Shape" fill="#FD6234" stroke="none" />
    <path d="M20.6227 41.2574C9.23305 41.2574 0 32.0212 0 20.6287C0 9.23615 9.23305 0 20.6227 0C32.0123 0 41.2454 9.23615 41.2454 20.6287C41.2454 32.0212 32.0123 41.2574 20.6227 41.2574Z" transform="translate(54.7974 908.8409)" id="Shape" fill="#FD6234" stroke="none" />
    <path d="M21.8449 110.164C40.8783 109.916 56.1071 94.3041 55.8596 75.2923C55.612 56.2805 39.9818 41.068 20.9485 41.3158C9.52842 41.4646 0.150266 32.3374 0.00178751 20.9297C-0.146829 9.52346 8.99048 0.155261 20.4105 0.00653797C62.2839 -0.537404 96.6701 32.9281 97.2146 74.7552C97.7592 116.581 64.2561 150.928 22.3828 151.472C10.9628 151.62 1.5846 142.493 1.43598 131.086C1.2875 119.679 10.4248 110.311 21.8449 110.164Z" transform="translate(57.7435 427.8978)" id="Shape" fill="#FFC735" stroke="none" />
    <path d="M75.7568 41.2878C56.7391 41.2878 41.3219 56.6922 41.3219 75.6942C41.3219 94.6962 56.7391 110.101 75.7568 110.101C151.067 110.101 212.119 171.102 212.119 246.35C212.119 257.751 202.868 266.994 191.458 266.994C180.048 266.994 170.797 257.751 170.797 246.35C170.797 193.904 128.247 151.388 75.7568 151.388C33.917 151.388 0 117.499 0 75.6942C0 33.889 33.917 0 75.7568 0C87.1671 0 96.4177 9.24295 96.4177 20.6439C96.4177 32.0448 87.1671 41.2878 75.7568 41.2878Z" transform="translate(104.2918 644.7937)" id="Shape" fill="#FFC735" stroke="none" />
    <path d="M110.13 75.4842C110.13 56.5349 94.7218 41.1732 75.7147 41.1732C56.7076 41.1732 41.2989 56.5349 41.2989 75.4842C41.2989 86.8534 32.0535 96.0707 20.6495 96.0707C9.24545 96.0707 0 86.8534 0 75.4842C0 33.7949 33.8982 0 75.7147 0C117.531 0 151.429 33.7949 151.429 75.4842C151.429 86.8534 142.184 96.0707 130.78 96.0707C119.376 96.0707 110.13 86.8534 110.13 75.4842Z" transform="translate(375.3327 960.1179)" id="Shape" fill="#463C74" stroke="none" />
    <path d="M41.2453 20.6287C41.2453 73.0366 83.7171 115.521 136.11 115.521C147.499 115.521 156.732 124.757 156.732 136.149C156.732 147.542 147.499 156.778 136.11 156.778C60.9386 156.778 0 95.8216 0 20.6287C0 9.23615 9.23346 0 20.6227 0C32.0119 0 41.2453 9.23615 41.2453 20.6287Z" transform="translate(408.329 647.7407)" id="Shape" fill="#E5E0D5" stroke="none" />
    <path d="M179.082 41.3387C103.002 41.3387 41.3266 103.032 41.3266 179.134C41.3266 190.549 32.075 199.804 20.6633 199.804C9.25165 199.804 0 190.549 0 179.134C0 80.2011 80.1778 0 179.082 0C190.494 0 199.745 9.25393 199.745 20.6693C199.745 32.0847 190.494 41.3387 179.082 41.3387Z" transform="translate(690.5651 10.01965)" id="Shape" fill="#FFC735" stroke="none" />
    <path d="M147.262 167.955C147.262 98.0055 90.5729 41.3004 20.6442 41.3004C9.24309 41.3004 0 32.055 0 20.6502C0 9.24537 9.24309 0 20.6442 0C113.376 0 188.55 75.196 188.55 167.955C188.55 179.359 179.307 188.605 167.906 188.605C156.505 188.605 147.262 179.359 147.262 167.955Z" transform="translate(919.1821 10.60904)" id="Shape" fill="#B4D51E" stroke="none" />
    <path d="M119.612 140.275C119.612 85.5884 75.2934 41.2574 20.6227 41.2574C9.23346 41.2574 0 32.0212 0 20.6287C0 9.23615 9.23346 0 20.6227 0C98.0718 0 160.857 62.8033 160.857 140.275C160.857 151.668 151.623 160.904 140.234 160.904C128.845 160.904 119.612 151.668 119.612 140.275Z" transform="translate(302.8587 430.2554)" id="Shape" fill="#FFC735" stroke="none" />
    <path d="M0.00177931 20.8976C-0.146291 9.50487 8.96588 0.148943 20.3545 0.00178966C31.7431 -0.146739 41.0955 8.96851 41.2436 20.3598C41.3916 31.7525 32.2795 41.1071 20.8908 41.2556C9.50234 41.4041 0.149987 32.2889 0.00177931 20.8976Z" transform="translate(58.92193 538.114)" id="Shape" fill="#FD6234" stroke="none" />
    <path d="M20.6227 41.2574C9.23346 41.2574 0 32.0212 0 20.6287C0 9.23615 9.23346 0 20.6227 0C32.0119 0 41.2454 9.23615 41.2454 20.6287C41.2454 32.0212 32.0119 41.2574 20.6227 41.2574Z" transform="translate(275.1654 870.5305)" id="Shape" fill="#FD6234" stroke="none" />
    <path d="M20.6227 41.2574C9.23346 41.2574 0 32.0212 0 20.6287C0 9.23615 9.23346 0 20.6227 0C32.0119 0 41.2454 9.23615 41.2454 20.6287C41.2454 32.0212 32.0119 41.2574 20.6227 41.2574Z" transform="translate(375.3327 1014.931)" id="Shape" fill="#FD6234" stroke="none" />
    <path d="M20.6227 41.2573C9.23305 41.2573 0 32.0212 0 20.6287C0 9.23614 9.23305 0 20.6227 0C32.0123 0 41.2454 9.23614 41.2454 20.6287C41.2454 32.0212 32.0123 41.2573 20.6227 41.2573Z" transform="translate(82.49071 1069.745)" id="Shape" fill="#FD6234" stroke="none" />
    <path d="M20.6227 41.2574C9.23346 41.2574 0 32.0212 0 20.6287C0 9.23615 9.23346 0 20.6227 0C32.0119 0 41.2454 9.23615 41.2454 20.6287C41.2454 32.0212 32.0119 41.2574 20.6227 41.2574Z" transform="translate(275.1654 925.3438)" id="Shape" fill="#463C74" stroke="none" />
    <path d="M20.6227 41.2574C9.23346 41.2574 0 32.0212 0 20.6287C0 9.23615 9.23346 0 20.6227 0C32.0119 0 41.2454 9.23615 41.2454 20.6287C41.2454 32.0212 32.0119 41.2574 20.6227 41.2574Z" transform="translate(275.1654 980.7466)" id="Shape" fill="#463C74" stroke="none" />
    <path d="M20.6227 41.2573C9.23346 41.2573 0 32.0212 0 20.6287C0 9.23614 9.23346 0 20.6227 0C32.0119 0 41.2454 9.23614 41.2454 20.6287C41.2454 32.0212 32.0119 41.2573 20.6227 41.2573Z" transform="translate(430.7193 1022.004)" id="Shape" fill="#FD6234" stroke="none" />
    <path d="M20.6227 41.2573C9.23346 41.2573 0 32.0212 0 20.6287C0 9.23614 9.23346 0 20.6227 0C32.0119 0 41.2454 9.23614 41.2454 20.6287C41.2454 32.0212 32.0119 41.2573 20.6227 41.2573Z" transform="translate(430.7193 1076.817)" id="Shape" fill="#FD6234" stroke="none" />
    <path d="M20.6227 41.2574C9.23346 41.2574 0 32.0212 0 20.6287C0 9.23615 9.23346 0 20.6227 0C32.0119 0 41.2454 9.23615 41.2454 20.6287C41.2454 32.0212 32.0119 41.2574 20.6227 41.2574Z" transform="translate(408.329 647.7407)" id="Shape" fill="#FD6234" stroke="none" />
    <path d="M20.6227 41.2574C9.23346 41.2574 0 32.0212 0 20.6287C0 9.23615 9.23346 0 20.6227 0C32.0119 0 41.2454 9.23615 41.2454 20.6287C41.2454 32.0212 32.0119 41.2574 20.6227 41.2574Z" transform="translate(160.8569 644.7937)" id="Shape" fill="#FD6234" stroke="none" />
    <path d="M151.429 75.7367C151.429 33.908 117.53 0 75.7147 0C33.8982 0 0 33.908 0 75.7367C0 117.565 33.8982 151.473 75.7147 151.473C117.53 151.473 151.429 117.565 151.429 75.7367ZM75.7147 41.3109C94.7218 41.3109 110.13 56.7241 110.13 75.7367C110.13 94.7494 94.7218 110.163 75.7147 110.163C56.7062 110.163 41.2989 94.7494 41.2989 75.7367C41.2989 56.7241 56.7062 41.3109 75.7147 41.3109Z" transform="translate(467.8401 585.8546)" id="Shape" fill="#FFC735" fill-rule="evenodd" stroke="none" />
    <path d="M0 20.6287C0 32.0212 9.24554 41.2574 20.6527 41.2574C39.6629 41.2574 55.074 56.6505 55.074 75.6385L55.074 213.163C55.074 232.151 39.6629 247.544 20.6527 247.544C9.24554 247.544 0 256.78 0 268.173C0 279.565 9.24554 288.802 20.6527 288.802C42.3519 288.802 61.9197 279.685 75.7267 265.077C89.5324 279.685 109.102 288.802 130.801 288.802L194.136 288.802C235.959 288.802 269.862 254.938 269.862 213.163C269.862 201.771 260.616 192.534 249.21 192.534C237.804 192.534 228.557 201.771 228.557 213.163C228.557 232.151 213.146 247.544 194.136 247.544L130.801 247.544C111.791 247.544 96.3795 232.151 96.3795 213.163L96.3795 75.6385C96.3795 33.864 62.4745 0 20.6527 0C9.24554 0 0 9.23615 0 20.6287Z" transform="translate(635.7676 228.0943)" id="Shape" fill="#B4D51E" stroke="none" />
    <path d="M155.554 268.305C155.554 256.907 146.309 247.666 134.905 247.666C115.899 247.666 100.491 232.265 100.491 213.268L100.491 75.6758C100.491 56.6784 115.899 41.2777 134.905 41.2777C146.309 41.2777 155.554 32.037 155.554 20.6388C155.554 9.2407 146.309 0 134.905 0C93.0901 0 59.1931 33.8807 59.1931 75.6758L59.1931 213.268C59.1931 214.962 59.2481 216.642 59.3583 218.307C24.9919 228.823 0 260.781 0 298.575L0 378.379C0 389.777 9.24513 399.018 20.6487 399.018C32.0524 399.018 41.2975 389.777 41.2975 378.379L41.2975 298.575C41.2975 278.703 54.8954 262.003 73.2975 257.267C87.0331 276.445 109.509 288.944 134.905 288.944C146.309 288.944 155.554 279.703 155.554 268.305Z" transform="translate(521.4591 228.0943)" id="Shape" fill="#E5E0D5" stroke="none" />
    <path d="M75.7147 41.311C56.7062 41.311 41.2989 56.7241 41.2989 75.7367C41.2989 94.7494 56.7062 110.163 75.7147 110.163C94.7218 110.163 110.13 94.7494 110.13 75.7367C110.13 64.3294 119.375 55.0813 130.78 55.0813C142.184 55.0813 151.429 64.3294 151.429 75.7367C151.429 117.565 117.53 151.473 75.7147 151.473C33.8982 151.473 0 117.565 0 75.7367C0 33.908 33.8982 0 75.7147 0C87.1187 0 96.3642 9.24814 96.3642 20.6555C96.3642 32.0628 87.1187 41.311 75.7147 41.311Z" transform="translate(580.381 475.6385)" id="Shape" fill="#463C74" stroke="none" />
    <path d="M41.2989 75.7368C41.2989 56.7241 56.7075 41.311 75.7147 41.311C94.7218 41.311 110.13 56.7241 110.13 75.7368C110.13 94.7494 94.7218 110.163 75.7147 110.163C64.3107 110.163 55.0652 119.411 55.0652 130.818C55.0652 142.225 64.3107 151.474 75.7147 151.474C117.531 151.474 151.429 117.565 151.429 75.7368C151.429 33.908 117.531 0 75.7147 0C33.8981 0 0 33.908 0 75.7368C0 87.1441 9.24545 96.3922 20.6495 96.3922C32.0535 96.3922 41.2989 87.1441 41.2989 75.7368Z" transform="translate(1111.857 579.9607)" id="Shape" fill="#E5E0D5" stroke="none" />
    <path d="M20.6227 41.2574C9.23209 41.2574 0 32.0212 0 20.6287C0 9.23615 9.23209 0 20.6227 0C32.0119 0 41.2454 9.23615 41.2454 20.6287C41.2454 32.0212 32.0119 41.2574 20.6227 41.2574Z" transform="translate(635.7676 475.6385)" id="Shape" fill="#FD6234" stroke="none" />
    <path d="M20.6227 41.2574C9.23209 41.2574 0 32.0212 0 20.6287C0 9.23615 9.23209 0 20.6227 0C32.0119 0 41.2454 9.23615 41.2454 20.6287C41.2454 32.0212 32.0119 41.2574 20.6227 41.2574Z" transform="translate(635.7676 228.0943)" id="Shape" fill="#FD6234" stroke="none" />
    <path d="M20.6227 41.2574C9.23346 41.2574 0 32.0212 0 20.6287C0 9.23615 9.23346 0 20.6227 0C32.0119 0 41.2454 9.23615 41.2454 20.6287C41.2454 32.0212 32.0119 41.2574 20.6227 41.2574Z" transform="translate(521.4591 585.8546)" id="Shape" fill="#FD6234" stroke="none" />
    <path d="M20.6227 41.2574C9.23346 41.2574 0 32.0212 0 20.6287C0 9.23615 9.23346 0 20.6227 0C32.0119 0 41.2454 9.23615 41.2454 20.6287C41.2454 32.0212 32.0119 41.2574 20.6227 41.2574Z" transform="translate(522.6376 640.668)" id="Shape" fill="#463C74" stroke="none" />
    <path d="M213.408 443.811C255.231 443.811 289.134 409.925 289.134 368.123C289.134 326.32 255.231 292.434 213.408 292.434L161.089 292.434L161.089 249.085C161.089 230.084 176.5 214.681 195.51 214.681L333.193 214.681C352.207 214.681 367.613 230.084 367.613 249.085L367.613 311.012C367.613 322.412 376.866 331.654 388.266 331.654C399.666 331.654 408.918 322.412 408.918 311.012L408.918 249.085C408.918 227.397 399.79 207.839 385.168 194.038C399.79 180.24 408.918 160.68 408.918 138.992L408.918 75.6888C408.918 33.8866 375.021 0 333.193 0C321.792 0 312.54 9.24187 312.54 20.6424C312.54 32.0425 321.792 41.2848 333.193 41.2848C352.207 41.2848 367.613 56.6881 367.613 75.6888L367.613 138.992C367.613 157.993 352.207 173.396 333.193 173.396L195.51 173.396C153.687 173.396 119.784 207.284 119.784 249.085L119.784 292.434L75.7256 292.434C33.903 292.434 0 326.32 0 368.123C0 409.925 33.903 443.811 75.7256 443.811L213.408 443.811ZM41.3049 368.123C41.3049 349.122 56.7157 333.719 75.7256 333.719L213.408 333.719C232.418 333.719 247.829 349.122 247.829 368.123C247.829 387.123 232.418 402.527 213.408 402.527L75.7256 402.527C56.7157 402.527 41.3049 387.123 41.3049 368.123Z" transform="translate(1120.106 110.2161)" id="Shape" fill="#B4D51E" fill-rule="evenodd" stroke="none" />
    <path d="M34.2647 128.635C57.7511 138.188 84.3497 126.982 93.7883 103.873C103.226 80.7638 92.0532 54.1956 68.5668 44.6433C55.5904 39.3662 41.6611 40.412 30.1513 46.3528C20.0172 51.5832 7.55449 47.6254 2.31325 37.5137C-2.92798 27.4021 1.03806 14.9652 11.1707 9.73488C32.9977 -1.53113 59.5509 -3.54301 84.1583 6.46557C128.604 24.5409 150.164 75.0689 132.045 119.432C113.927 163.797 63.1176 184.89 18.6718 166.814C8.10808 162.517 3.03347 150.487 7.33966 139.945C11.6445 129.402 23.6996 124.34 34.2647 128.635Z" transform="translate(1065.898 151.4735)" id="Shape" fill="#FFC735" stroke="none" />
    <path d="M41.2453 20.6287C41.2453 73.0366 83.7143 115.521 136.11 115.521C147.493 115.521 156.732 124.757 156.732 136.149C156.732 147.542 147.493 156.778 136.11 156.778C60.9331 156.778 0 95.8216 0 20.6287C0 9.23615 9.23896 0 20.6227 0C32.0064 0 41.2453 9.23615 41.2453 20.6287Z" transform="translate(1367.578 462.0825)" id="Shape" fill="#FFC735" stroke="none" />
    <path d="M20.6227 41.2574C9.23896 41.2574 0 32.0212 0 20.6287C0 9.23615 9.23896 0 20.6227 0C32.0064 0 41.2454 9.23615 41.2454 20.6287C41.2454 32.0212 32.0064 41.2574 20.6227 41.2574Z" transform="translate(1367.578 460.9037)" id="Shape" fill="#FD6234" stroke="none" />
    <path d="M110.13 75.4842C110.13 56.5349 94.7218 41.1732 75.7147 41.1732C56.7062 41.1732 41.2989 56.5349 41.2989 75.4842C41.2989 86.8534 32.0535 96.0707 20.6495 96.0707C9.24407 96.0707 0 86.8534 0 75.4842C0 33.7949 33.8982 0 75.7147 0C117.53 0 151.429 33.7949 151.429 75.4842C151.429 86.8534 142.184 96.0707 130.78 96.0707C119.375 96.0707 110.13 86.8534 110.13 75.4842Z" transform="translate(525.5836 324.165)" id="Shape" fill="#FFC735" stroke="none" />
    <path d="M110.13 75.4841C110.13 56.5349 94.7218 41.1732 75.7147 41.1732C56.7076 41.1732 41.2989 56.5349 41.2989 75.4841C41.2989 86.8534 32.0535 96.0707 20.6495 96.0707C9.24545 96.0707 0 86.8534 0 75.4841C0 33.7949 33.8982 0 75.7147 0C117.531 0 151.429 33.7949 151.429 75.4841C151.429 86.8534 142.184 96.0707 130.78 96.0707C119.376 96.0707 110.13 86.8534 110.13 75.4841Z" transform="translate(864.3848 367.1906)" id="Shape" fill="#463C74" stroke="none" />
    <path d="M20.6227 115.521C73.0153 115.521 115.487 73.0365 115.487 20.6287C115.487 9.23615 124.72 0 136.11 0C147.499 0 156.732 9.23615 156.732 20.6287C156.732 95.8216 95.7937 156.778 20.6227 156.778C9.23346 156.778 0 147.542 0 136.149C0 124.757 9.23346 115.521 20.6227 115.521Z" transform="translate(434.8439 1041.454)" id="Shape" fill="#E5E0D5" stroke="none" />
    <path d="M20.6462 130.798C81.4605 130.798 130.76 81.4842 130.76 20.6523C130.76 9.24671 140.004 0 151.406 0C162.808 0 172.052 9.24671 172.052 20.6523C172.052 104.295 104.265 172.102 20.6462 172.102C9.24401 172.102 0 162.855 0 151.45C0 140.044 9.24401 130.798 20.6462 130.798Z" transform="translate(644.0167 538.7034)" id="Shape" fill="#B4D51E" stroke="none" />
    <path d="M20.6227 41.2574C9.23209 41.2574 0 32.0212 0 20.6287C0 9.23615 9.23209 0 20.6227 0C32.0119 0 41.2454 9.23615 41.2454 20.6287C41.2454 32.0212 32.0119 41.2574 20.6227 41.2574Z" transform="translate(635.7676 378.9784)" id="Shape" fill="#FD6234" stroke="none" />
    <path d="M20.6227 41.2574C9.23346 41.2574 0 32.0212 0 20.6287C0 9.23615 9.23346 0 20.6227 0C32.0119 0 41.2454 9.23615 41.2454 20.6287C41.2454 32.0212 32.0119 41.2574 20.6227 41.2574Z" transform="translate(780.1264 248.723)" id="Shape" fill="#FD6234" stroke="none" />
    <path d="M0 20.6287C0 32.0212 9.23346 41.2574 20.6227 41.2574C32.0119 41.2574 41.2454 32.0212 41.2454 20.6287C41.2454 9.23615 32.0119 0 20.6227 0C9.23346 0 0 9.23615 0 20.6287Z" transform="translate(1114.214 691.3556)" id="Shape" fill="#FD6234" stroke="none" />
    <path d="M0 20.6287C0 32.0212 9.23346 41.2574 20.6227 41.2574C32.0119 41.2574 41.2454 32.0212 41.2454 20.6287C41.2454 9.23615 32.0119 0 20.6227 0C9.23346 0 0 9.23615 0 20.6287Z" transform="translate(1059.416 691.3556)" id="Shape" fill="#FD6234" stroke="none" />
    <path d="M0 213.163C0 254.938 33.8926 288.802 75.7147 288.802C117.537 288.802 151.429 254.938 151.429 213.163L151.429 75.6385C151.429 33.864 117.537 0 75.7147 0C33.8926 0 0 33.864 0 75.6385L0 213.163ZM110.13 75.6385L110.13 213.163C110.13 232.151 94.726 247.544 75.7147 247.544C56.7034 247.544 41.2989 232.151 41.2989 213.163L41.2989 75.6385C41.2989 56.6505 56.7034 41.2574 75.7147 41.2574C94.726 41.2574 110.13 56.6505 110.13 75.6385Z" transform="translate(1388.201 909.4302)" id="Shape" fill="#B4D51E" style="mix-blend-mode: multiply;" fill-rule="evenodd" stroke="none" />
    <path d="M41.3632 116.729C41.3632 75.0141 75.3086 41.1984 117.196 41.1984C128.612 41.1984 137.877 31.9755 137.877 20.5992C137.877 9.22295 128.612 0 117.196 0C52.4761 0 0 52.2616 0 116.729C0 128.105 9.26536 137.328 20.6816 137.328C32.0978 137.328 41.3632 128.105 41.3632 116.729Z" transform="translate(1443.587 813.3596)" id="Shape" fill="#E5E0D5" stroke="none" />
    <path d="M41.2454 20.6287C41.2454 9.23478 32.0064 0 20.6227 0C9.23896 0 0 9.23478 0 20.6287C0 32.0212 9.23896 41.2574 20.6227 41.2574C32.0064 41.2574 41.2454 32.0212 41.2454 20.6287Z" transform="translate(1443.587 909.4302)" id="Shape" fill="#FD6234" stroke="none" />
    <path d="M75.7147 0C33.8982 0 0 33.908 0 75.7367C0 117.565 33.8982 151.473 75.7147 151.473C117.531 151.473 151.429 117.565 151.429 75.7367C151.429 33.908 117.531 0 75.7147 0ZM41.2989 75.7367C41.2989 56.7241 56.7075 41.3109 75.7147 41.3109C94.7218 41.3109 110.13 56.7241 110.13 75.7367C110.13 94.7494 94.7218 110.163 75.7147 110.163C56.7075 110.163 41.2989 94.7494 41.2989 75.7367Z" transform="translate(1203.775 1046.758)" id="Shape" fill="#FFC735" fill-rule="evenodd" stroke="none" />
    <path d="M20.6328 0C32.0277 0 41.2657 9.25971 41.2657 20.6813C41.2657 39.7178 56.6619 55.1501 75.6537 55.1501L213.206 55.1501C232.198 55.1501 247.594 39.7178 247.594 20.6813C247.594 9.25971 256.832 0 268.227 0C279.622 0 288.86 9.25971 288.86 20.6813C288.86 46.0642 276.418 68.5337 257.315 82.2978C262.162 100.088 278.494 113.058 298.488 113.058L378.269 113.058C389.664 113.058 398.902 122.318 398.902 133.739C398.902 145.161 389.664 154.42 378.269 154.42L298.488 154.42C261.169 154.42 229.114 130.445 218.396 96.3377C216.681 96.4535 214.95 96.5128 213.206 96.5128L75.6537 96.5128C33.8709 96.5128 0 62.5623 0 20.6813C0 9.25971 9.23801 0 20.6328 0Z" transform="translate(846.119 988.998)" id="Shape" fill="#E5E0D5" stroke="none" />
    <path d="M151.429 75.6385C151.429 33.864 117.531 0 75.7147 0C33.8982 0 0 33.864 0 75.6385L0 213.163C0 254.938 33.8982 288.802 75.7147 288.802C117.531 288.802 151.429 254.938 151.429 213.163L151.429 75.6385ZM75.7147 41.2574C94.7218 41.2574 110.13 56.6505 110.13 75.6385L110.13 213.163C110.13 232.151 94.7218 247.544 75.7147 247.544C56.7075 247.544 41.2989 232.151 41.2989 213.163L41.2989 75.6385C41.2989 56.6505 56.7075 41.2574 75.7147 41.2574Z" transform="translate(621.6264 742.6326)" id="Shape" fill="#B4D51E" fill-rule="evenodd" stroke="none" />
    <path d="M20.6227 269.941C32.0119 269.941 41.2454 260.691 41.2454 249.282C41.2454 230.267 56.634 214.851 75.6165 214.851C75.6165 214.851 75.6165 214.851 75.6165 214.851L213.101 214.851C232.083 214.851 247.472 230.267 247.472 249.282C247.472 260.691 256.706 269.941 268.095 269.941C279.484 269.941 288.717 260.691 288.717 249.282C288.717 227.577 279.604 208.003 265 194.192C279.604 180.381 288.717 160.808 288.717 139.102L288.717 75.7488C288.717 33.9134 254.863 0 213.101 0C201.712 0 192.478 9.24961 192.478 20.6588C192.478 32.0679 201.712 41.3175 213.101 41.3175C232.083 41.3175 247.472 56.7331 247.472 75.7488L247.472 139.102C247.472 158.118 232.083 173.534 213.101 173.534L75.6179 173.534C75.6165 173.534 75.6179 173.534 75.6179 173.534C33.8556 173.534 0 207.447 0 249.282C0 260.691 9.23346 269.941 20.6227 269.941Z" transform="translate(846.119 760.3143)" id="Shape" fill="#B4D51E" stroke="none" />
    <path d="M41.2989 75.7367C41.2989 94.7494 56.7075 110.163 75.7147 110.163C94.7218 110.163 110.13 94.7494 110.13 75.7367C110.13 56.7241 94.7218 41.3109 75.7147 41.3109C64.3107 41.3109 55.0652 32.0628 55.0652 20.6555C55.0652 9.24814 64.3107 0 75.7147 0C117.531 0 151.429 33.908 151.429 75.7367C151.429 117.565 117.531 151.473 75.7147 151.473C33.8981 151.473 0 117.565 0 75.7367C0 64.3294 9.24545 55.0813 20.6495 55.0813C32.0535 55.0813 41.2989 64.3294 41.2989 75.7367Z" transform="translate(1093.591 933.5953)" id="Shape" fill="#463C74" stroke="none" />
    <path d="M110.13 75.7368C110.13 56.7241 94.7218 41.311 75.7147 41.311C56.7076 41.311 41.2989 56.7241 41.2989 75.7368C41.2989 94.7494 56.7076 110.163 75.7147 110.163C87.1187 110.163 96.3642 119.411 96.3642 130.818C96.3642 142.225 87.1187 151.474 75.7147 151.474C33.8982 151.474 0 117.565 0 75.7368C0 33.908 33.8982 0 75.7147 0C117.531 0 151.429 33.908 151.429 75.7368C151.429 87.1441 142.184 96.3922 130.78 96.3922C119.376 96.3922 110.13 87.1441 110.13 75.7368Z" transform="translate(849.0651 764.4401)" id="Shape" fill="#463C74" stroke="none" />
    <path d="M131.985 87.1683C131.985 61.7762 111.581 41.3597 86.6152 41.3597C61.6494 41.3597 41.2453 61.7762 41.2453 87.1683C41.2453 101.196 47.4624 113.713 57.3035 122.135C65.9678 129.55 66.9976 142.603 59.6037 151.29C52.2097 159.978 39.1927 161.011 30.5298 153.596C11.8677 137.626 0 113.771 0 87.1683C0 39.118 38.6868 0 86.6152 0C134.544 0 173.23 39.118 173.23 87.1683C173.23 98.5891 163.997 107.848 152.608 107.848C141.219 107.848 131.985 98.5891 131.985 87.1683Z" transform="translate(545.0279 864.6365)" id="Shape" fill="#FD6234" stroke="none" />
    <path d="M41.2454 20.6287C41.2454 32.0212 32.0119 41.2574 20.6227 41.2574C9.23346 41.2574 0 32.0212 0 20.6287C0 9.23615 9.23346 0 20.6227 0C32.0119 0 41.2454 9.23615 41.2454 20.6287Z" transform="translate(1093.591 988.4086)" id="Shape" fill="#FD6234" stroke="none" />
    <path d="M41.2454 20.6287C41.2454 32.0212 32.0119 41.2573 20.6227 41.2573C9.23346 41.2573 0 32.0212 0 20.6287C0 9.23614 9.23346 0 20.6227 0C32.0119 0 41.2454 9.23614 41.2454 20.6287Z" transform="translate(846.119 988.998)" id="Shape" fill="#FD6234" stroke="none" />
    <path d="M41.2454 20.6287C41.2454 32.0212 32.0119 41.2573 20.6227 41.2573C9.23346 41.2573 0 32.0212 0 20.6287C0 9.23614 9.23346 0 20.6227 0C32.0119 0 41.2454 9.23614 41.2454 20.6287Z" transform="translate(1203.775 1102.161)" id="Shape" fill="#FD6234" stroke="none" />
    <path d="M41.2454 20.6287C41.2454 32.0212 32.0119 41.2573 20.6227 41.2573C9.23346 41.2573 0 32.0212 0 20.6287C0 9.23614 9.23346 0 20.6227 0C32.0119 0 41.2454 9.23614 41.2454 20.6287Z" transform="translate(1259.162 1101.572)" id="Shape" fill="#FD6234" stroke="none" />
    <path d="M75.4622 41.311C56.5184 41.311 41.1612 56.7241 41.1612 75.7368C41.1612 94.7494 56.5184 110.163 75.4622 110.163C86.8282 110.163 96.0428 119.411 96.0428 130.818C96.0428 142.225 86.8282 151.474 75.4622 151.474C33.7851 151.474 0 117.565 0 75.7368C0 33.908 33.7851 0 75.4622 0C86.8282 0 96.0428 9.24815 96.0428 20.6555C96.0428 32.0628 86.8282 41.311 75.4622 41.311Z" transform="translate(942.7509 988.998)" id="Shape" fill="#FFC735" stroke="none" />
    <path d="M89.5245 41.2574C63.2855 41.2574 41.319 63.0358 41.319 90.7662C41.319 118.497 63.2855 140.275 89.5245 140.275C100.934 140.275 110.184 149.511 110.184 160.904C110.184 172.296 100.934 181.532 89.5245 181.532C39.6979 181.532 0 140.507 0 90.7662C0 41.0249 39.6979 0 89.5245 0C100.934 0 110.184 9.23615 110.184 20.6287C110.184 32.0212 100.934 41.2574 89.5245 41.2574Z" transform="translate(971.0334 620.0393)" id="Shape" fill="#FFC735" stroke="none" />
    <path d="M246.278 41.3339C193.847 41.3339 151.344 83.8968 151.344 136.402C151.344 178.254 117.465 212.181 75.6721 212.181C33.8791 212.181 0 178.254 0 136.402C0 124.988 9.24026 115.735 20.6379 115.735C32.0355 115.735 41.2757 124.988 41.2757 136.402C41.2757 155.425 56.6757 170.847 75.6721 170.847C94.6686 170.847 110.069 155.425 110.069 136.402C110.069 61.0695 171.052 0 246.278 0C257.676 0 266.916 9.25328 266.916 20.667C266.916 32.0806 257.676 41.3339 246.278 41.3339Z" transform="translate(678.1915 874.6562)" id="Shape" fill="#FFC735" stroke="none" />
    <path d="M20.6227 177.407C107.183 177.407 177.355 107.214 177.355 20.6287C177.355 9.23615 186.588 0 197.978 0C209.367 0 218.6 9.23615 218.6 20.6287C218.6 130.001 129.963 218.664 20.6227 218.664C9.23346 218.664 0 209.428 0 198.035C0 186.643 9.23346 177.407 20.6227 177.407Z" transform="translate(681.1376 565.226)" id="Shape" fill="#E5E0D5" stroke="none" />
    <path d="M174.957 41.3404C101.155 41.3404 41.3284 101.185 41.3284 175.008C41.3284 186.423 32.0763 195.678 20.6642 195.678C9.25204 195.678 0 186.423 0 175.008C0 78.3535 78.331 0 174.957 0C186.369 0 195.621 9.25432 195.621 20.6702C195.621 32.0861 186.369 41.3404 174.957 41.3404Z" transform="translate(1134.836 8.840864)" id="Shape" fill="#E5E0D5" stroke="none" />
    <path d="M115.487 136.149C115.487 83.7415 73.0153 41.2574 20.6227 41.2574C9.23346 41.2574 0 32.0212 0 20.6287C0 9.23615 9.23346 0 20.6227 0C95.7937 0 156.732 60.9564 156.732 136.149C156.732 147.542 147.499 156.778 136.11 156.778C124.72 156.778 115.487 147.542 115.487 136.149Z" transform="translate(1158.405 858.1533)" id="Shape" fill="#FD6234" stroke="none" />
    <path d="M41.2453 20.6287C41.2453 73.0365 83.7174 115.521 136.109 115.521C147.499 115.521 156.732 124.757 156.732 136.149C156.732 147.542 147.499 156.778 136.109 156.778C60.9383 156.778 -9.6239e-06 95.8216 0 20.6287C1.37484e-06 9.23615 9.23307 0 20.6227 0C32.0121 0 41.2453 9.23615 41.2453 20.6287Z" transform="translate(1.178439 1041.454)" id="Shape" fill="#B4D51E" stroke="none" />
    <path d="M104.324 41.1926C69.4511 41.1926 41.1806 69.4713 41.1806 104.355C41.1806 115.729 31.9616 124.951 20.5903 124.951C9.21897 124.951 0 115.729 0 104.355C0 46.7206 46.7071 0 104.324 0C115.696 0 124.915 9.22165 124.915 20.5963C124.915 31.9709 115.696 41.1926 104.324 41.1926Z" transform="translate(481.9814 811.5914)" id="Shape" fill="#FFC735" stroke="none" />
    <path d="M41.2454 20.6287C41.2454 32.0212 32.0119 41.2573 20.6227 41.2573C9.23346 41.2573 0 32.0212 0 20.6287C0 9.23614 9.23346 0 20.6227 0C32.0119 0 41.2454 9.23614 41.2454 20.6287Z" transform="translate(997.5483 988.998)" id="Shape" fill="#FD6234" stroke="none" />
    <path d="M41.2454 20.6287C41.2454 32.0212 32.0119 41.2574 20.6227 41.2574C9.23346 41.2574 0 32.0212 0 20.6287C0 9.23615 9.23346 0 20.6227 0C32.0119 0 41.2454 9.23615 41.2454 20.6287Z" transform="translate(904.4517 874.6562)" id="Shape" fill="#FD6234" stroke="none" />
    <path d="M41.2454 20.6287C41.2454 32.0212 32.0119 41.2574 20.6227 41.2574C9.23346 41.2574 0 32.0212 0 20.6287C0 9.23615 9.23346 0 20.6227 0C32.0119 0 41.2454 9.23615 41.2454 20.6287Z" transform="translate(903.8624 705.501)" id="Shape" fill="#FD6234" stroke="none" />
    <path d="M41.2454 20.6287C41.2454 32.0212 32.0119 41.2574 20.6227 41.2574C9.23346 41.2574 0 32.0212 0 20.6287C0 9.23615 9.23346 0 20.6227 0C32.0119 0 41.2454 9.23615 41.2454 20.6287Z" transform="translate(903.8624 650.0982)" id="Shape" fill="#FD6234" stroke="none" />
    <path d="M41.2454 20.6287C41.2454 32.0212 32.0119 41.2574 20.6227 41.2574C9.23346 41.2574 0 32.0212 0 20.6287C0 9.23615 9.23346 0 20.6227 0C32.0119 0 41.2454 9.23615 41.2454 20.6287Z" transform="translate(864.3848 422.5933)" id="Shape" fill="#FD6234" stroke="none" />
    <path d="M41.2454 20.6287C41.2454 32.0212 32.0119 41.2574 20.6227 41.2574C9.23346 41.2574 0 32.0212 0 20.6287C0 9.23615 9.23346 0 20.6227 0C32.0119 0 41.2454 9.23615 41.2454 20.6287Z" transform="translate(1039.972 760.3143)" id="Shape" fill="#FD6234" stroke="none" />
    <path d="M75.7147 151.473C33.8982 151.473 0 117.565 0 75.7367C0 33.9084 33.8982 0 75.7147 0C117.531 0 151.429 33.9086 151.429 75.7367C151.429 117.565 117.531 151.473 75.7147 151.473ZM41.2989 75.7367C41.2989 94.7495 56.7075 110.163 75.7147 110.163C94.7218 110.163 110.13 94.7495 110.13 75.7367C110.13 56.7239 94.7218 41.3109 75.7147 41.3109C56.7075 41.3109 41.2989 56.7239 41.2989 75.7367Z" transform="translate(357.6561 12.9666)" id="Shape" fill="#FFC735" fill-rule="evenodd" stroke="none" />
    <path d="M20.6227 0C32.0123 0 41.2454 9.24671 41.2454 20.6523C41.2454 39.662 56.6339 55.0727 75.6165 55.0727L213.101 55.0727C232.083 55.0727 247.472 39.662 247.472 20.6523C247.472 9.24671 256.706 0 268.095 0C279.484 0 288.717 9.24671 288.717 20.6523C288.717 62.4745 254.863 96.3772 213.101 96.3772L78.3919 96.3772C78.3834 96.3772 78.3747 96.3772 78.3662 96.3772C59.3835 96.3772 43.995 111.788 43.995 130.798L43.995 268.479C43.995 287.489 59.3835 302.9 78.3662 302.9C89.7558 302.9 98.9888 312.146 98.9888 323.552C98.9888 334.958 89.7558 344.204 78.3662 344.204C36.6043 344.204 2.74968 310.302 2.74968 268.479L2.74968 130.798C2.74968 109.771 11.3077 90.7446 25.126 77.0233C9.70228 63.1601 -3.12561e-06 43.0407 0 20.6523C1.59234e-06 9.24671 9.23309 0 20.6227 0Z" transform="translate(0 180.943)" id="Shape" fill="#B4D51E" stroke="none" />
    <path d="M218.522 57.9513C229.415 24.3239 261.074 0 298.431 0L378.257 0C389.658 0 398.901 9.21415 398.901 20.5805C398.901 31.9467 389.658 41.1609 378.257 41.1609L298.431 41.1609C278.917 41.1609 262.462 54.2207 257.383 72.0509C276.367 85.7641 288.717 108.064 288.717 133.244C288.717 144.614 279.484 153.831 268.095 153.831C256.706 153.831 247.472 144.614 247.472 133.244C247.472 114.295 232.083 98.9335 213.101 98.9335L75.6165 98.9335C56.6339 98.9335 41.2454 114.295 41.2454 133.244C41.2454 144.614 32.0123 153.831 20.6227 153.831C9.23309 153.831 0 144.614 0 133.244C0 91.5552 33.8546 57.7603 75.6165 57.7603L213.101 57.7603C214.924 57.7603 216.731 57.8247 218.522 57.9513L218.522 57.9513Z" transform="translate(0 68.36935)" id="Shape" fill="#E5E0D5" stroke="none" />
    <path d="M41.2989 75.7367C41.2989 56.7241 56.7075 41.311 75.7147 41.311C94.7218 41.311 110.13 56.7241 110.13 75.7367C110.13 94.7494 94.7218 110.163 75.7147 110.163C64.3107 110.163 55.0652 119.411 55.0652 130.818C55.0652 142.225 64.3107 151.473 75.7147 151.473C117.531 151.473 151.429 117.565 151.429 75.7367C151.429 33.908 117.531 0 75.7147 0C33.8982 0 0 33.908 0 75.7367C0 87.1441 9.24545 96.3922 20.6495 96.3922C32.0535 96.3922 41.2989 87.1441 41.2989 75.7367Z" transform="translate(247.4721 126.1297)" id="Shape" fill="#463C74" stroke="none" />
    <path d="M41.2453 20.6287C41.2453 9.23615 32.0119 0 20.6227 0C9.23346 0 0 9.23615 0 20.6287C0 32.0212 9.23346 41.2574 20.6227 41.2574C32.0119 41.2574 41.2453 32.0212 41.2453 20.6287Z" transform="translate(247.4721 181.5324)" id="Shape" fill="#FD6234" stroke="none" />
    <path d="M41.2454 20.6287C41.2454 9.23615 32.0119 0 20.6227 0C9.23346 0 0 9.23615 0 20.6287C0 32.0212 9.23346 41.2574 20.6227 41.2574C32.0119 41.2574 41.2454 32.0212 41.2454 20.6287Z" transform="translate(0 180.943)" id="Shape" fill="#463C74" stroke="none" />
    <path d="M41.2453 20.6287C41.2453 9.23615 32.0119 0 20.6227 0C9.23346 0 0 9.23615 0 20.6287C0 32.0212 9.23346 41.2574 20.6227 41.2574C32.0119 41.2574 41.2453 32.0212 41.2453 20.6287Z" transform="translate(226.8494 306.4833)" id="Shape" fill="#463C74" stroke="none" />
    <path d="M41.2453 20.6287C41.2453 9.23615 32.0119 0 20.6227 0C9.23346 0 0 9.23615 0 20.6287C0 32.0212 9.23346 41.2574 20.6227 41.2574C32.0119 41.2574 41.2453 32.0212 41.2453 20.6287Z" transform="translate(226.8494 361.2967)" id="Shape" fill="#463C74" stroke="none" />
    <path d="M41.2454 20.6287C41.2454 9.23615 32.0119 0 20.6227 0C9.23346 0 0 9.23615 0 20.6287C0 32.0212 9.23346 41.2574 20.6227 41.2574C32.0119 41.2574 41.2454 32.0212 41.2454 20.6287Z" transform="translate(405.9721 384.8723)" id="Shape" fill="#463C74" stroke="none" />
    <path d="M41.2454 20.6287C41.2454 9.23615 32.0119 0 20.6227 0C9.23346 0 0 9.23615 0 20.6287C0 32.0212 9.23346 41.2574 20.6227 41.2574C32.0119 41.2574 41.2454 32.0212 41.2454 20.6287Z" transform="translate(462.5372 381.9254)" id="Shape" fill="#463C74" stroke="none" />
    <path d="M41.2454 20.6287C41.2454 9.23615 32.0119 0 20.6227 0C9.23346 0 0 9.23615 0 20.6287C0 32.0212 9.23346 41.2574 20.6227 41.2574C32.0119 41.2574 41.2454 32.0212 41.2454 20.6287Z" transform="translate(462.5372 439.6857)" id="Shape" fill="#463C74" stroke="none" />
    <path d="M41.2454 20.6287C41.2454 9.23614 32.0119 0 20.6227 0C9.23346 0 0 9.23614 0 20.6287C0 32.0212 9.23346 41.2573 20.6227 41.2573C32.0119 41.2573 41.2454 32.0212 41.2454 20.6287Z" transform="translate(181.4796 1158.153)" id="Shape" fill="#463C74" stroke="none" />
    <path d="M41.2453 20.6287C41.2453 9.23614 32.0119 0 20.6227 0C9.23346 0 0 9.23614 0 20.6287C0 32.0212 9.23346 41.2573 20.6227 41.2573C32.0119 41.2573 41.2453 32.0212 41.2453 20.6287Z" transform="translate(243.3476 1158.153)" id="Shape" fill="#FD6234" stroke="none" />
    <path d="M41.2454 20.6287C41.2454 9.23614 32.0119 0 20.6227 0C9.23346 0 0 9.23614 0 20.6287C0 32.0212 9.23346 41.2573 20.6227 41.2573C32.0119 41.2573 41.2454 32.0212 41.2454 20.6287Z" transform="translate(429.5409 1156.974)" id="Shape" fill="#463C74" stroke="none" />
    <path d="M41.2454 20.6287C41.2454 9.23588 32.0119 0 20.6227 0C9.23346 0 0 9.23588 0 20.6287C0 32.0216 9.23346 41.2574 20.6227 41.2574C32.0119 41.2574 41.2454 32.0216 41.2454 20.6287Z" transform="translate(357.6561 68.36935)" id="Shape" fill="#FD6234" stroke="none" />
    <path d="M41.2454 20.6287C41.2454 9.23574 32.0119 0 20.6227 0C9.23346 0 0 9.23574 0 20.6287C0 32.0216 9.23346 41.2574 20.6227 41.2574C32.0119 41.2574 41.2454 32.0216 41.2454 20.6287Z" transform="translate(413.0428 68.36935)" id="Shape" fill="#FD6234" stroke="none" />
    <path d="M75.4622 110.163C56.5184 110.163 41.1612 94.7494 41.1612 75.7367C41.1612 56.7239 56.5184 41.311 75.4622 41.311C86.8281 41.311 96.0427 32.0632 96.0427 20.6555C96.0427 9.24773 86.8281 0 75.4622 0C33.7851 0 0 33.9084 0 75.7367C0 117.565 33.7851 151.473 75.4622 151.473C86.8281 151.473 96.0427 142.225 96.0427 130.818C96.0427 119.411 86.8281 110.163 75.4622 110.163Z" transform="translate(123.7361 70.72691)" id="Shape" fill="#FFC735" stroke="none" />
    <path d="M20.6227 41.2574C73.0153 41.2574 115.487 83.7415 115.487 136.149C115.487 147.542 124.72 156.778 136.11 156.778C147.499 156.778 156.732 147.542 156.732 136.149C156.732 60.9564 95.7937 0 20.6227 0C9.23305 0 0 9.23615 0 20.6287C0 32.0212 9.23305 41.2574 20.6227 41.2574Z" transform="translate(76.00929 347.7407)" id="Shape" fill="#FD6234" stroke="none" />
    <path d="M41.2453 20.6287C41.2453 9.23615 32.0123 0 20.6227 0C9.23305 0 0 9.23615 0 20.6287C0 32.0212 9.23305 41.2574 20.6227 41.2574C32.0123 41.2574 41.2453 32.0212 41.2453 20.6287Z" transform="translate(58.92193 483.89)" id="Shape" fill="#FD6234" stroke="none" />
    <path d="M41.2454 20.6287C41.2454 32.0212 32.0119 41.2574 20.6227 41.2574C9.23346 41.2574 0 32.0212 0 20.6287C0 9.23615 9.23346 0 20.6227 0C32.0119 0 41.2454 9.23615 41.2454 20.6287Z" transform="translate(959.2491 874.6562)" id="Shape" fill="#463C74" stroke="none" />
    <path d="M41.2453 20.6287C41.2453 32.0212 32.0119 41.2574 20.6227 41.2574C9.23345 41.2574 0 32.0212 0 20.6287C0 9.23615 9.23345 0 20.6227 0C32.0119 0 41.2453 9.23615 41.2453 20.6287Z" transform="translate(1014.046 874.6562)" id="Shape" fill="#463C74" stroke="none" />
    <path d="M41.2454 20.6287C41.2454 32.0212 32.0119 41.2574 20.6227 41.2574C9.23346 41.2574 0 32.0212 0 20.6287C0 9.23615 9.23346 0 20.6227 0C32.0119 0 41.2454 9.23615 41.2454 20.6287Z" transform="translate(677.013 742.6326)" id="Shape" fill="#FD6234" stroke="none" />
    <path d="M41.2454 20.6287C41.2454 32.0212 32.0119 41.2574 20.6227 41.2574C9.23346 41.2574 0 32.0212 0 20.6287C0 9.23615 9.23346 0 20.6227 0C32.0119 0 41.2454 9.23615 41.2454 20.6287Z" transform="translate(678.1915 990.1768)" id="Shape" fill="#FD6234" stroke="none" />
    <path d="M83.7377 41.2574C60.4312 41.2574 41.3139 60.2811 41.3139 84.0247C41.3139 107.767 60.4312 126.791 83.7377 126.791C168.431 126.791 236.866 195.755 236.866 280.55C236.866 291.943 227.617 301.179 216.209 301.179C204.801 301.179 195.552 291.943 195.552 280.55C195.552 218.294 145.368 168.048 83.7377 168.048C37.3684 168.048 0 130.306 0 84.0247C0 37.7422 37.3684 0 83.7377 0C95.1472 0 104.395 9.23615 104.395 20.6287C104.395 32.0212 95.1472 41.2574 83.7377 41.2574Z" transform="translate(865.5632 155.0098)" id="Shape" fill="#FFC735" stroke="none" />
    <path d="M131.985 20.6751C131.985 83.2986 81.9257 133.699 20.6227 133.699C9.23346 133.699 0 142.956 0 154.374C0 165.792 9.23346 175.049 20.6227 175.049C105.107 175.049 173.231 105.731 173.231 20.6751C173.231 9.25693 163.997 0 152.608 0C141.219 0 131.985 9.25693 131.985 20.6751Z" transform="translate(928.6097 414.9312)" id="Shape" fill="#FD6234" stroke="none" />
    <path d="M20.6227 41.2574C9.23346 41.2574 0 32.0212 0 20.6287C0 9.23615 9.23346 0 20.6227 0C32.0119 0 41.2454 9.23615 41.2454 20.6287C41.2454 32.0212 32.0119 41.2574 20.6227 41.2574Z" transform="translate(1060.595 414.9312)" id="Shape" fill="#463C74" stroke="none" />
    <path d="M20.6227 0C32.0119 0 41.2454 9.25004 41.2454 20.6597L41.2454 110.185C41.2454 121.595 32.0119 130.845 20.6227 130.845C9.23346 130.845 0 121.595 0 110.185L0 20.6597C0 9.25004 9.23346 0 20.6227 0Z" transform="translate(780.1264 310.609)" id="Shape" fill="#B4D51E" stroke="none" />
    <path d="M159.638 20.6489C159.638 97.4365 97.4081 159.685 20.6429 159.685C9.24249 159.685 0 168.93 0 180.333C0 191.737 9.24249 200.982 20.6429 200.982C120.209 200.982 200.924 120.244 200.924 20.6489C200.924 9.24519 191.681 0 180.281 0C168.881 0 159.638 9.24519 159.638 20.6489Z" transform="translate(302.8587 173.8703)" id="Shape" fill="#B4D51E" stroke="none" />
    <path d="M216.244 20.6287C216.244 32.0212 206.993 41.2574 195.583 41.2574L20.6602 41.2574C9.25026 41.2574 0 32.0212 0 20.6287C0 9.23615 9.25026 0 20.6602 0L195.583 0C206.993 0 216.244 9.23615 216.244 20.6287Z" transform="translate(925.6636 218.0747)" id="Shape" fill="#E5E0D5" stroke="none" />
    <path d="M41.2454 20.6287C41.2454 9.23615 32.0119 0 20.6227 0C9.23346 0 0 9.23615 0 20.6287C0 32.0212 9.23346 41.2574 20.6227 41.2574C32.0119 41.2574 41.2454 32.0212 41.2454 20.6287Z" transform="translate(462.5372 173.8703)" id="Shape" fill="#FD6234" stroke="none" />
    <path d="M35.205 35.2152C27.1511 43.2714 14.0929 43.2714 6.04038 35.2152C-2.01346 27.159 -2.01346 14.097 6.04038 6.04214C14.0929 -2.01405 27.1511 -2.01405 35.205 6.04214C43.2588 14.097 43.2588 27.159 35.205 35.2152Z" transform="translate(1065.309 159.1356)" id="Shape" fill="#463C74" stroke="none" />
    <path d="M35.205 35.2151C27.1511 43.2715 14.0929 43.2715 6.04038 35.2151C-2.01346 27.1591 -2.01346 14.098 6.04038 6.04198C14.0929 -2.01399 27.1511 -2.01399 35.205 6.04198C43.2588 14.098 43.2588 27.1591 35.205 35.2151Z" transform="translate(925.0743 97.24951)" id="Shape" fill="#463C74" stroke="none" />
    <path d="M0 20.6287C0 9.23615 9.23309 0 20.6227 0L86.6152 0C98.0049 0 107.238 9.23615 107.238 20.6287C107.238 32.0212 98.0049 41.2574 86.6152 41.2574L20.6227 41.2574C9.23309 41.2574 0 32.0212 0 20.6287Z" transform="translate(0 620.0393)" id="Shape" fill="#463C74" stroke="none" />
    <path d="M20.6227 100.196C9.23346 100.196 0 90.9783 0 79.6081L0 20.5883C0 9.21807 9.23346 0 20.6227 0C32.0119 0 41.2454 9.21807 41.2454 20.5883L41.2454 79.6081C41.2454 90.9783 32.0119 100.196 20.6227 100.196Z" transform="translate(635.7676 1095.088)" id="Shape" fill="#B4D51E" stroke="none" />
    <path d="M0 20.6287C0 9.23614 9.24231 0 20.6425 0L184.406 0C195.806 0 205.048 9.23614 205.048 20.6287C205.048 32.0212 195.806 41.2573 184.406 41.2573L20.6425 41.2573C9.24231 41.2573 0 32.0212 0 20.6287Z" transform="translate(755.3792 1158.153)" id="Shape" fill="#FFC735" stroke="none" />
    <path d="M0 20.6287C5.60795e-07 9.23574 9.23309 0 20.6227 0L115.487 0C126.877 0 136.11 9.23574 136.11 20.6287C136.11 32.0216 126.877 41.2574 115.487 41.2574L20.6227 41.2574C9.23309 41.2574 -5.60795e-07 32.0216 0 20.6287Z" transform="translate(0 10.60904)" id="Shape" fill="#FD6234" stroke="none" />
    <path d="M20.6227 41.2573C9.23346 41.2573 0 32.0212 0 20.6287C0 9.23614 9.23346 0 20.6227 0C32.0119 0 41.2454 9.23614 41.2454 20.6287C41.2454 32.0212 32.0119 41.2573 20.6227 41.2573Z" transform="translate(924.4851 1158.153)" id="Shape" fill="#FD6234" stroke="none" />
    <path d="M104.324 41.1926C69.4497 41.1926 41.1806 69.4713 41.1806 104.355C41.1806 115.729 31.9616 124.951 20.5903 124.951C9.21759 124.951 0 115.729 0 104.355C0 46.7206 46.707 0 104.324 0C115.696 0 124.914 9.22124 124.914 20.5963C124.914 31.9714 115.696 41.1926 104.324 41.1926Z" transform="translate(780.7156 100.1965)" id="Shape" fill="#FD6234" stroke="none" />
    <path d="M6.04038 6.04214C14.0929 -2.01405 27.1511 -2.01405 35.205 6.04214C43.2588 14.0983 43.2588 27.159 35.205 35.2152C27.1511 43.2714 14.0929 43.2714 6.04038 35.2152C-2.01346 27.159 -2.01346 14.0983 6.04038 6.04214Z" transform="translate(780.7156 183.89)" id="Shape" fill="#463C74" stroke="none" />
    <path d="M20.6227 152.652C93.5156 152.652 152.608 93.5428 152.608 20.6287C152.608 9.23615 161.841 0 173.23 0C184.62 0 193.853 9.23615 193.853 20.6287C193.853 116.329 116.295 193.91 20.6227 193.91C9.23346 193.91 0 184.673 0 173.281C0 161.888 9.23346 152.652 20.6227 152.652Z" transform="translate(1174.903 640.668)" id="Shape" fill="#B4D51E" stroke="none" />
    <path d="M35.205 35.2152C27.1511 43.2714 14.0929 43.2714 6.04038 35.2152C-2.01346 27.159 -2.01346 14.097 6.04038 6.04214C14.0929 -2.01405 27.1511 -2.01405 35.205 6.04214C43.2588 14.097 43.2588 27.159 35.205 35.2152Z" transform="translate(1327.511 640.668)" id="Shape" fill="#463C74" stroke="none" />
    <path d="M35.2029 35.2152C27.1463 43.2714 14.0853 43.2714 6.04245 35.2152C-2.01415 27.159 -2.01415 14.097 6.04245 6.04214C14.0853 -2.01405 27.1463 -2.01405 35.2029 6.04214C43.2595 14.097 43.2595 27.159 35.2029 35.2152Z" transform="translate(1385.844 640.668)" id="Shape" fill="#463C74" stroke="none" />
    <path d="M220.334 41.3247C121.459 41.3247 41.3127 121.499 41.3127 220.399C41.3127 231.81 32.0642 241.061 20.6563 241.061C9.24854 241.061 0 231.81 0 220.399C0 98.6752 98.6409 0 220.334 0C231.737 0 240.991 9.25123 240.991 20.6624C240.991 32.0735 231.737 41.3247 220.334 41.3247Z" transform="translate(1338.706 711.9843)" id="Shape" fill="#FFC735" stroke="none" />
    <path d="M41.2451 20.5249C41.3028 31.9176 32.1173 41.2007 20.7265 41.2571C9.33703 41.3149 0.0580154 32.1267 0.000270732 20.7325C-0.0574739 9.33975 9.12943 0.0580323 20.5189 0.000270811C31.9083 -0.0574907 41.1887 9.13209 41.2451 20.5249Z" transform="translate(1100.662 218.0747)" id="Shape" fill="#FD6234" stroke="none" />
    <path d="M41.2451 20.5244C41.3028 31.9172 32.1173 41.1996 20.7265 41.2571C9.33703 41.3147 0.0580154 32.1257 0.000270732 20.7329C-0.0574739 9.34025 9.12943 0.0578923 20.5189 0.000269529C31.9083 -0.0573533 41.1887 9.13176 41.2451 20.5244Z" transform="translate(1289.212 8.840864)" id="Shape" fill="#FD6234" stroke="none" />
    <path d="M41.2451 20.5244C41.3028 31.9172 32.1173 41.1996 20.7265 41.2571C9.33703 41.3147 0.0580154 32.1257 0.000270732 20.7329C-0.0574739 9.34025 9.12943 0.0578923 20.5189 0.000269529C31.9083 -0.0573533 41.1887 9.13176 41.2451 20.5244Z" transform="translate(1100.662 10.60904)" id="Shape" fill="#FD6234" stroke="none" />
    <path d="M41.2451 20.5244C41.3028 31.9173 32.1173 41.1996 20.7265 41.2571C9.33703 41.3147 0.0580154 32.1257 0.000270732 20.7329C-0.0574739 9.34025 9.12943 0.0578923 20.5189 0.000269529C31.9083 -0.0573533 41.1887 9.13177 41.2451 20.5244Z" transform="translate(1100.662 65.42239)" id="Shape" fill="#FD6234" stroke="none" />
    <path d="M102.508 41.2574L20.6391 41.2574C9.24633 41.2574 0 32.0212 0 20.6287C0 9.23615 9.24633 0 20.6391 0L102.508 0C113.901 0 123.147 9.23615 123.147 20.6287C123.147 32.0212 113.901 41.2574 102.508 41.2574Z" transform="translate(1445.944 640.668)" id="Shape" fill="#E5E0D5" stroke="none" />
    <path d="M41.2454 20.6287C41.2454 32.0212 32.0064 41.2574 20.6227 41.2574C9.23896 41.2574 0 32.0212 0 20.6287C0 9.23615 9.23896 0 20.6227 0C32.0064 0 41.2454 9.23615 41.2454 20.6287Z" transform="translate(1538.452 711.9843)" id="Shape" fill="#FD6234" stroke="none" />
    <path d="M110.13 75.7367C110.13 56.7241 94.7218 41.311 75.7147 41.311C56.7075 41.311 41.2989 56.7241 41.2989 75.7367C41.2989 94.7494 56.7075 110.163 75.7147 110.163C87.1187 110.163 96.3641 119.411 96.3641 130.818C96.3641 142.225 87.1187 151.473 75.7147 151.473C33.8981 151.473 0 117.565 0 75.7367C0 33.908 33.8981 0 75.7147 0C117.531 0 151.429 33.908 151.429 75.7367C151.429 87.1441 142.178 96.3922 130.78 96.3922C119.376 96.3922 110.13 87.1441 110.13 75.7367Z" transform="translate(1233.825 107.8585)" id="Shape" fill="#463C74" stroke="none" />
    <path d="M75.4621 41.311C56.5143 41.311 41.1612 56.7239 41.1612 75.7367C41.1612 94.7496 56.5143 110.163 75.4621 110.163C86.8226 110.163 96.0427 119.41 96.0427 130.818C96.0427 142.225 86.8226 151.473 75.4621 151.473C33.7796 151.473 0 117.565 0 75.7367C0 33.9084 33.7796 0 75.4621 0C86.8226 0 96.0427 9.24777 96.0427 20.6555C96.0427 32.0632 86.8226 41.311 75.4621 41.311Z" transform="translate(1374.649 0)" id="Shape" fill="#E5E0D5" stroke="none" />
    <path d="M41.2454 20.6287C41.2454 32.0212 32.0119 41.2574 20.6227 41.2574C9.23346 41.2574 0 32.0212 0 20.6287C0 9.23615 9.23346 0 20.6227 0C32.0119 0 41.2454 9.23615 41.2454 20.6287Z" transform="translate(1290.39 218.0747)" id="Shape" fill="#FD6234" stroke="none" />
    <path d="M41.2454 20.6287C41.2454 32.0212 32.0064 41.2574 20.6227 41.2574C9.23896 41.2574 0 32.0212 0 20.6287C0 9.23574 9.23896 0 20.6227 0C32.0064 0 41.2454 9.23574 41.2454 20.6287Z" transform="translate(1430.625 110.2161)" id="Shape" fill="#463C74" stroke="none" />
    <path d="M41.2454 20.6287C41.2454 32.0212 32.0064 41.2574 20.6227 41.2574C9.23346 41.2574 0 32.0212 0 20.6287C0 9.23615 9.23346 0 20.6227 0C32.0064 0 41.2454 9.23615 41.2454 20.6287Z" transform="translate(1345.777 218.0747)" id="Shape" fill="#463C74" stroke="none" />
    <path d="M41.2454 20.6287C41.2454 32.0212 32.0064 41.2574 20.6227 41.2574C9.23896 41.2574 0 32.0212 0 20.6287C0 9.23615 9.23896 0 20.6227 0C32.0064 0 41.2454 9.23615 41.2454 20.6287Z" transform="translate(1400.574 218.0747)" id="Shape" fill="#463C74" stroke="none" />
    <path d="M41.2454 20.6287C41.2454 32.0216 32.0064 41.2574 20.6227 41.2574C9.23896 41.2574 0 32.0216 0 20.6287C0 9.23574 9.23896 0 20.6227 0C32.0064 0 41.2454 9.23574 41.2454 20.6287Z" transform="translate(1432.392 54.22397)" id="Shape" fill="#FD6234" stroke="none" />
    <path d="M41.2454 20.6287C41.2454 32.0216 32.0064 41.2574 20.6227 41.2574C9.23896 41.2574 0 32.0216 0 20.6287C0 9.23574 9.23896 0 20.6227 0C32.0064 0 41.2454 9.23574 41.2454 20.6287Z" transform="translate(1487.19 54.22397)" id="Shape" fill="#FD6234" stroke="none" />
    <path d="M41.2454 20.6287C41.2454 32.0216 32.0064 41.2574 20.6227 41.2574C9.23896 41.2574 0 32.0216 0 20.6287C0 9.23574 9.23896 0 20.6227 0C32.0064 0 41.2454 9.23574 41.2454 20.6287Z" transform="translate(1542.576 54.22397)" id="Shape" fill="#FD6234" stroke="none" />
    <path d="M20.6227 41.2574C9.23896 41.2574 0 32.0212 0 20.6287C0 9.23615 9.23896 0 20.6227 0C32.0064 0 41.2454 9.23615 41.2454 20.6287C41.2454 32.0212 32.0064 41.2574 20.6227 41.2574Z" transform="translate(1487.779 401.3752)" id="Shape" fill="#463C74" stroke="none" />
  </g>
</svg>